<svg
  xmlns="http://www.w3.org/2000/svg"
  viewBox="130.8 76.2 580.3 92.9"
  xml:space="preserve"
>
  <path
    fill="none"
    stroke="#E5E8D7"
    stroke-width=".834"
    d="M130.8 132.3h583.1"
  />
  <g fill="#E5E8D7">
    <path
      d="M246.4 144.6h4.4c2.5 0 4.1.1 5 .3 1.3.3 2.4 1 3.2 1.9.8 1 1.2 2.2 1.2 3.7 0 1.2-.3 2.3-.9 3.2-.6.9-1.4 1.6-2.4 2.1-1.1.5-2.5.7-4.4.7l8 10.3h-2.8l-8-10.3h-1.3v10.3h-2.2v-22.2h.2zm2.2 2.2v7.6h3.8c1.5 0 2.6-.1 3.3-.4.7-.3 1.3-.7 1.7-1.4.4-.6.6-1.3.6-2.1 0-.7-.2-1.4-.6-2-.4-.6-.9-1-1.6-1.3-.7-.3-1.7-.4-3.3-.4h-3.9zM273.6 144.6h12.8v2.2h-10.5v7h10.4v2.2h-10.4v8.7h10.4v2.2h-12.7v-22.3zM297.6 162.7l1.9-1.1c1.3 2.4 2.9 3.7 4.6 3.7.7 0 1.4-.2 2.1-.5.7-.3 1.2-.8 1.5-1.4.3-.6.5-1.2.5-1.9s-.3-1.5-.8-2.2c-.7-1-2-2.2-3.8-3.6-1.9-1.4-3-2.4-3.5-3-.8-1-1.2-2.2-1.2-3.4 0-1 .2-1.9.7-2.6.5-.8 1.1-1.4 2-1.9.8-.5 1.8-.7 2.7-.7 1 0 2 .3 2.9.8s1.9 1.5 2.9 2.9l-1.8 1.4c-.8-1.1-1.5-1.8-2.1-2.2-.6-.4-1.2-.5-1.9-.5-.9 0-1.6.3-2.2.8-.6.5-.9 1.2-.9 2 0 .5.1 1 .3 1.4.2.5.6.9 1.1 1.5.3.3 1.2 1 2.9 2.2 1.9 1.4 3.2 2.7 4 3.8.7 1.1 1.1 2.2 1.1 3.3 0 1.6-.6 3-1.8 4.2-1.2 1.2-2.7 1.8-4.5 1.8-1.4 0-2.6-.4-3.7-1.1-1.1-.8-2.1-2-3-3.7zM320.9 146.8v-2.2h12.2v2.2h-5v20.1h-2.3v-20.1h-4.9zM352.7 144.6l10.4 22.3h-2.4l-3.5-7.3h-9.6l-3.5 7.3h-2.5l10.5-22.3h.6zm-.3 4.7-3.8 8.1h7.6l-3.8-8.1zM372.9 144.6h2.2V158c0 1.6 0 2.6.1 3 .1.9.4 1.6.8 2.2.4.6 1 1.1 1.9 1.5.8.4 1.7.6 2.5.6.7 0 1.4-.2 2.1-.5.7-.3 1.2-.7 1.7-1.3.5-.6.8-1.2 1-2 .2-.6.2-1.7.2-3.5v-13.4h2.2V158c0 2-.2 3.6-.6 4.8-.4 1.2-1.2 2.3-2.3 3.2-1.2.9-2.6 1.4-4.2 1.4-1.8 0-3.3-.4-4.6-1.3-1.3-.9-2.1-2-2.6-3.4-.3-.9-.4-2.4-.4-4.7v-13.4zM401.4 144.6h4.4c2.5 0 4.1.1 5 .3 1.3.3 2.4 1 3.2 1.9.8 1 1.2 2.2 1.2 3.7 0 1.2-.3 2.3-.9 3.2-.6.9-1.4 1.6-2.4 2.1-1.1.5-2.5.7-4.4.7l8 10.3h-2.8l-8-10.3h-1.2v10.3h-2.2l.1-22.2zm2.2 2.2v7.6h3.8c1.5 0 2.6-.1 3.3-.4.7-.3 1.3-.7 1.7-1.4.4-.6.6-1.3.6-2.1 0-.7-.2-1.4-.6-2-.4-.6-.9-1-1.6-1.3s-1.7-.4-3.3-.4h-3.9zM435.7 144.6l10.4 22.3h-2.4l-3.5-7.3h-9.6l-3.5 7.3h-2.5l10.5-22.3h.6zm-.2 4.7-3.8 8.1h7.6l-3.8-8.1zM456.5 166.9v-22.3h.5l14.8 17v-17h2.2v22.3h-.5L458.8 150v16.9h-2.3zM485.7 146.8v-2.2h12.2v2.2h-5v20.1h-2.3v-20.1h-4.9zM526.1 144.6h4.4c1.8 0 3.1.2 4.1.6.9.4 1.7 1.1 2.2 1.9.6.9.8 1.8.8 2.9 0 1-.2 1.9-.7 2.7-.5.8-1.2 1.5-2.1 2 1.2.4 2.1.9 2.7 1.4.6.5 1.1 1.2 1.5 1.9.3.8.5 1.6.5 2.4 0 1.8-.7 3.3-2 4.5-1.3 1.2-3.1 1.9-5.3 1.9h-6.1v-22.2zm2.2 2.2v7.1h1.3c1.5 0 2.7-.1 3.4-.4.7-.3 1.3-.7 1.7-1.4.4-.6.6-1.3.6-2.1 0-1-.4-1.8-1.1-2.4-.7-.6-1.8-.9-3.4-.9l-2.5.1zm0 9.4v8.5h2.8c1.6 0 2.8-.2 3.6-.5.8-.3 1.4-.8 1.8-1.5.5-.7.7-1.4.7-2.2 0-1-.3-1.8-1-2.6-.6-.7-1.5-1.2-2.7-1.5-.8-.2-2.1-.3-4-.3l-1.2.1zM559.9 144.6l10.4 22.3h-2.4l-3.5-7.3h-9.6l-3.5 7.3h-2.5l10.5-22.3h.6zm-.3 4.7-3.8 8.1h7.6l-3.8-8.1zM580.8 144.6h4.4c2.5 0 4.1.1 5 .3 1.3.3 2.4 1 3.2 1.9.8 1 1.2 2.2 1.2 3.7 0 1.2-.3 2.3-.8 3.2-.6.9-1.4 1.6-2.4 2.1-1.1.5-2.5.7-4.4.7l8 10.3h-2.8l-8-10.3H583v10.3h-2.2v-22.2zm2.2 2.2v7.6h3.8c1.5 0 2.6-.1 3.3-.4.7-.3 1.3-.7 1.7-1.4.4-.6.6-1.3.6-2.1 0-.7-.2-1.4-.6-2-.4-.6-.9-1-1.6-1.3s-1.7-.4-3.3-.4H583z"
    />
  </g>
  <path
    fill="#DBA128"
    d="M212.4 80.2h38v10.3h-6.6s.1-3.4-.5-4.5c-.5-.9-2.7-.9-2.7-.9h-10.3v11.2h6.4s1 0 1.4-.7c.4-.6.3-1.1.3-1.1h5.4v9.5h-5.5s.1-1-.4-1.4c-.4-.3-1.5-.3-1.5-.3h-6.1v10.6h9s1.8 0 2.5-1.1.6-3.6.6-3.6h7.9v9.7h-38v-5h4.5V85.1h-4.5v-4.9h.1zM203.1 85s.5-2.7-2-4.1c-1.5-.9-7.4-.7-7.4-.7h-33.9v4.9h4.2v27.7h-4.1v5h22.8v-5H178v-8.1h15.8s4.3.2 6.9-2c2.4-2.1 2.3-6.4 2.3-6.4V85h.1zm-13.7 11.3s-.1 1.2-.8 1.9c-.7.7-2.4.7-2.4.7H178V85.1h8.8s1.2 0 1.9.6c.6.6.6 1.7.6 1.7l.1 8.9zM305.3 112.8s-1.1 0-1.5-.3c-1-.7-.9-1.9-.9-1.9l-.3-5.8s.1-1.8-.8-3-4.8-1.6-4.8-1.6 2.5.3 5.2-1.5c2.8-1.8 2.5-5.5 2.5-5.5v-7s.2-3.6-1.7-4.9c-2-1.3-6.4-1.2-6.4-1.2h-35.8V85h4.2v27.7h-4.2v5h23.1v-5h-5.1v-10.2h5.5s2.8-.1 3.9 1.1c1 1.1.9 2.4.9 2.4v6.7s-.1 2.8.6 3.9c.7 1 2.8 1.1 2.8 1.1h15.9v-5l-3.1.1zm-17.2-16.6c-1.2 1-3 1-3 1h-6.4v-12h7.6s1.5-.1 2.2.5c.7.6.7 1.7.7 1.7V93s.1 2.1-1.1 3.2zM360.8 112.8s-1.1 0-1.5-.3c-1-.7-.9-1.9-.9-1.9l-.3-5.8s.1-1.8-.8-3-4.7-1.6-4.7-1.6 2.5.3 5.2-1.5c2.8-1.8 2.5-5.5 2.5-5.5v-7s.2-3.6-1.7-4.9c-2-1.3-6.4-1.2-6.4-1.2h-35.8V85h4.2v27.7h-4.2v5h23.1v-5h-5.1v-10.2h5.5s2.8-.1 3.9 1.1c1 1.1.9 2.4.9 2.4v6.7s-.1 2.8.6 3.9c.7 1 2.8 1.1 2.8 1.1H364v-5l-3.2.1zm-17.2-16.6c-1.2 1-3 1-3 1h-6.4v-12h7.6s1.5-.1 2.2.5c.7.6.7 1.7.7 1.7V93c.1 0 .2 2.1-1.1 3.2zM630.5 112.8s-1.1 0-1.5-.3c-1-.7-.9-1.9-.9-1.9l-.3-5.8s.1-1.8-.8-3-4.7-1.6-4.7-1.6 2.5.3 5.2-1.5c2.8-1.8 2.5-5.5 2.5-5.5v-7s.2-3.6-1.7-4.9c-2-1.3-6.4-1.2-6.4-1.2h-35.8V85h4.2v27.7h-4.2v5H609v-5h-5.1v-10.2h5.5s2.8-.1 3.9 1.1c1 1.1.9 2.4.9 2.4v6.7s-.1 2.8.6 3.9c.7 1 2.8 1.1 2.8 1.1h15.9v-5l-3 .1zm-17.2-16.6c-1.2 1-3 1-3 1h-6.4v-12h7.6s1.5-.1 2.2.5c.7.6.7 1.7.7 1.7V93s.1 2.1-1.1 3.2zM410.8 81.7c-2.3-1.6-6.8-1.6-6.8-1.6h-23.8s-4 0-5.9 1.6c-1.3 1.1-1.3 3.4-1.3 3.4v27.7s-.2 1.7 1.4 3.2c2 2 6.7 1.8 6.7 1.8h25s3.4 0 5.3-1.4c1.8-1.4 1.8-4.2 1.8-4.2V86.5s0-3.1-2.4-4.8zm-11.6 27.4s0 2.2-.9 3c-.9.8-2.5.7-2.5.7h-6.4s-1.1 0-2-.9c-1-1-1-2.9-1-2.9V88.7s-.1-1.6.8-2.6c1-1 2.9-1 2.9-1h5.7s1.6 0 2.5.9.9 2.6.9 2.6v20.5zM423.2 112.8v5h16.5v-5H434V96.3l20.7 21.5H466V85.1h3.9v-4.9h-15v4.9h3.8v16.6L438 80.2h-14.8v4.9h4v27.7zM479 112.8v5h16.4v-5h-5.7V96.3l20.7 21.5h11.4V85.1h3.8v-4.9h-15v4.9h3.9v16.6l-20.8-21.5H479v4.9h3.9v27.7zM573.3 81.7c-2.3-1.6-6.8-1.6-6.8-1.6h-23.8s-4 0-5.9 1.6c-1.3 1.1-1.3 3.4-1.3 3.4v27.7s-.2 1.7 1.4 3.2c2 2 6.8 1.8 6.8 1.8h25s3.4 0 5.2-1.4c1.8-1.4 1.8-4.2 1.8-4.2V86.5s.1-3.1-2.4-4.8zm-12.2 30.4c-.9.8-2.6.7-2.6.7h-6.4s-1.2.1-2.1-.8c-1-1-.9-3-.9-3V88.7s-.2-1.9.8-2.8c1-1 3-.7 3-.7h5.7s1.7-.1 2.6.8c.9.9.7 2.8.7 2.8v20.5c-.1-.2 0 2.1-.8 2.8zM684.9 85.8s.2-3-1.2-4.3c-1.5-1.5-9.4-1.3-9.4-1.3h-32.9v4.9h4.3v27.7h-4.3v5h36.5s3.3.2 5.4-1.8c1.7-1.6 1.5-3.8 1.5-3.8V85.8h.1zm-14.4 26.4c-.6.6-2.1.6-2.1.6h-8.8V85.1h9.1s1.1-.1 1.8.7c.6.6.5 1.7.5 1.7v22.7c.1-.1.2 1.3-.5 2z"
  />
  <path
    fill="#E5E8D7"
    d="M210.7 78.5h38v10.3h-6.6s.1-3.4-.5-4.5c-.5-.9-2.7-.9-2.7-.9h-10.3v11.2h6.4s1 0 1.4-.7c.4-.6.3-1.1.3-1.1h5.4v9.5h-5.5s.1-1-.4-1.4c-.4-.3-1.5-.3-1.5-.3h-6.1v10.6h9s1.8 0 2.5-1.1.6-3.6.6-3.6h7.9v9.7h-38v-5h4.5V83.4h-4.5v-4.9h.1zM201.4 83.2s.5-2.7-2-4.1c-1.5-.9-7.4-.7-7.4-.7h-33.9v4.9h4.2V111h-4.1v5H181v-5h-4.6v-8h15.8s4.3.2 6.9-2c2.4-2.1 2.3-6.4 2.3-6.4V83.2zm-13.7 11.4s-.1 1.2-.8 1.9c-.7.7-2.4.7-2.4.7h-8.1V83.4h8.8s1.2 0 1.9.6c.6.6.6 1.7.6 1.7v8.9zM303.6 111.1s-1.1 0-1.5-.3c-1-.7-.9-1.9-.9-1.9l-.3-5.8s.1-1.8-.8-3-4.8-1.6-4.8-1.6 2.5.3 5.2-1.5c2.8-1.8 2.5-5.5 2.5-5.5v-7s.2-3.6-1.7-4.9c-2-1.3-6.4-1.2-6.4-1.2H259v4.9h4.2V111H259v5h23.1v-5H277v-10.2h5.5s2.8-.1 3.9 1.1c1 1.1.9 2.4.9 2.4v6.7s-.1 2.8.6 3.9c.7 1 2.8 1.1 2.8 1.1h15.9v-5l-3 .1zm-17.2-16.6c-1.2 1-3 1-3 1H277v-12h7.6s1.5-.1 2.2.5c.7.6.7 1.7.7 1.7v5.7c0-.1.1 2-1.1 3.1zM359.1 111.1s-1.1 0-1.5-.3c-1-.7-.9-1.9-.9-1.9l-.3-5.8s.1-1.8-.8-3-4.7-1.6-4.7-1.6 2.5.3 5.2-1.5c2.8-1.8 2.5-5.5 2.5-5.5v-7s.2-3.6-1.7-4.9c-2-1.3-6.4-1.2-6.4-1.2h-35.8v4.9h4.2V111h-4.2v5h23.1v-5h-5.1v-10.2h5.5s2.8-.1 3.9 1.1c1 1.1.9 2.4.9 2.4v6.7s-.1 2.8.6 3.9c.7 1 2.8 1.1 2.8 1.1h15.9v-5l-3.2.1zm-17.2-16.6c-1.2 1-3 1-3 1h-6.4v-12h7.6s1.5-.1 2.2.5c.7.6.7 1.7.7 1.7v5.7c.1-.1.2 2-1.1 3.1zM628.8 111.1s-1.1 0-1.5-.3c-1-.7-.9-1.9-.9-1.9l-.4-5.9s.1-1.8-.8-3-4.8-1.6-4.8-1.6 2.5.3 5.2-1.5c2.8-1.8 2.5-5.5 2.5-5.5v-7s.2-3.6-1.7-4.9c-2-1.3-6.4-1.2-6.4-1.2h-35.8v4.9h4.2v27.7h-4.2v5h23.1v-5h-5.1v-10.2h5.5s2.8-.1 3.9 1.1c1 1.1.9 2.4.9 2.4v6.7s-.1 2.8.6 3.9c.7 1 2.8 1.1 2.8 1.1h15.9v-5h-3v.2zm-17.2-16.6c-1.2 1-3 1-3 1h-6.4v-12h7.6s1.5-.1 2.2.5c.7.6.7 1.7.7 1.7v5.7c0-.1.1 2-1.1 3.1zM409.1 80c-2.3-1.6-6.8-1.6-6.8-1.6h-23.8s-4 0-5.9 1.6c-1.3 1.1-1.3 3.4-1.3 3.4v27.7s-.2 1.7 1.4 3.2c2 2 6.7 1.8 6.7 1.8h25s3.4 0 5.3-1.5c1.9-1.4 1.8-4.2 1.8-4.2V84.8c-.1 0 0-3.1-2.4-4.8zm-11.6 27.4s0 2.2-.9 3c-.9.8-2.5.7-2.5.7h-6.4s-1.1 0-2-.9c-1-1-1-2.9-1-2.9V86.9s-.1-1.6.8-2.6c1-1 2.9-1 2.9-1h5.7s1.6 0 2.5.9.9 2.6.9 2.6v20.6zM421.5 111.1v5H438v-5h-5.7V94.6l20.6 21.5h11.4V83.4h3.9v-4.9h-15v4.9h3.8V100l-20.7-21.5h-14.8v4.9h4v27.7zM477.3 111.1v5h16.4v-5H488V94.6l20.7 21.5H520V83.4h3.9v-4.9h-15v4.9h3.8V100L492 78.5h-14.7v4.9h3.9v27.7zM571.6 80c-2.3-1.6-6.8-1.6-6.8-1.6H541s-4 0-5.9 1.6c-1.3 1.1-1.3 3.4-1.3 3.4v27.7s-.2 1.7 1.4 3.2c2 2 6.7 1.8 6.7 1.8h25s3.4 0 5.2-1.5c1.8-1.4 1.8-4.2 1.8-4.2V84.8c.1 0 .2-3.1-2.3-4.8zm-12.3 30.4c-.9.8-2.6.7-2.6.7h-6.4s-1.2.1-2.1-.8c-1-1-.9-3-.9-3V86.9s-.2-1.9.8-2.8c1-1 3-.7 3-.7h5.7s1.7-.1 2.6.8c.9.9.7 2.8.7 2.8v20.5c0-.1.1 2.2-.8 2.9zM683.2 84.1s.2-3-1.2-4.3c-1.5-1.5-9.4-1.3-9.4-1.3h-32.9v4.9h4.3v27.7h-4.3v5h36.5s3.3.1 5.4-1.8c1.7-1.6 1.5-3.8 1.5-3.8V84.1h.1zm-14.4 26.4c-.6.6-2.1.6-2.1.6h-8.8V83.4h9.1s1.1-.1 1.8.7c.6.6.5 1.7.5 1.7v22.7c.1-.1.2 1.3-.5 2z"
  />
</svg>
